<mxfile host="Electron" agent="Mozilla/5.0 (Windows NT 10.0; Win64; x64) AppleWebKit/537.36 (KHTML, like Gecko) draw.io/28.0.6 Chrome/138.0.7204.100 Electron/37.2.3 Safari/537.36" version="28.0.6">
  <diagram name="Processor Pipeline" id="BIZDZ8qWBmCg8_KwZChz">
    <mxGraphModel dx="2549" dy="2170" grid="1" gridSize="10" guides="1" tooltips="1" connect="1" arrows="1" fold="1" page="1" pageScale="1" pageWidth="827" pageHeight="1169" math="0" shadow="0">
      <root>
        <mxCell id="0" />
        <mxCell id="1" parent="0" />
        <mxCell id="8T1mNHdE_dd9eB9AEmfn-29" value="" style="rounded=1;whiteSpace=wrap;html=1;" vertex="1" parent="1">
          <mxGeometry x="-70" y="-60" width="1010" height="720" as="geometry" />
        </mxCell>
        <mxCell id="8T1mNHdE_dd9eB9AEmfn-1" value="Fetch PCEN=1" style="rounded=1;whiteSpace=wrap;html=1;fillColor=#dae8fc;strokeColor=#6c8ebf;fontSize=12;fontStyle=1;" vertex="1" parent="1">
          <mxGeometry x="100" y="50" width="120" height="60" as="geometry" />
        </mxCell>
        <mxCell id="8T1mNHdE_dd9eB9AEmfn-2" value="Decode" style="rounded=1;whiteSpace=wrap;html=1;fillColor=#dae8fc;strokeColor=#6c8ebf;fontSize=12;fontStyle=1;" vertex="1" parent="1">
          <mxGeometry x="300" y="50" width="120" height="60" as="geometry" />
        </mxCell>
        <mxCell id="8T1mNHdE_dd9eB9AEmfn-3" value="R-Type Exe" style="rounded=1;whiteSpace=wrap;html=1;fillColor=#fff2cc;strokeColor=#d6b656;fontSize=12;" vertex="1" parent="1">
          <mxGeometry x="100" y="200" width="120" height="60" as="geometry" />
        </mxCell>
        <mxCell id="8T1mNHdE_dd9eB9AEmfn-4" value="I-Type Exe" style="rounded=1;whiteSpace=wrap;html=1;fillColor=#fff2cc;strokeColor=#d6b656;fontSize=12;" vertex="1" parent="1">
          <mxGeometry x="250" y="200" width="120" height="60" as="geometry" />
        </mxCell>
        <mxCell id="8T1mNHdE_dd9eB9AEmfn-25" style="edgeStyle=orthogonalEdgeStyle;rounded=0;orthogonalLoop=1;jettySize=auto;html=1;strokeColor=none;" edge="1" parent="1" source="8T1mNHdE_dd9eB9AEmfn-5">
          <mxGeometry relative="1" as="geometry">
            <mxPoint x="460" y="330" as="targetPoint" />
          </mxGeometry>
        </mxCell>
        <mxCell id="8T1mNHdE_dd9eB9AEmfn-5" value="B-Type Exe" style="rounded=1;whiteSpace=wrap;html=1;fillColor=#fff2cc;strokeColor=#d6b656;fontSize=12;" vertex="1" parent="1">
          <mxGeometry x="400" y="200" width="120" height="60" as="geometry" />
        </mxCell>
        <mxCell id="8T1mNHdE_dd9eB9AEmfn-6" value="S-Type Exe" style="rounded=1;whiteSpace=wrap;html=1;fillColor=#fff2cc;strokeColor=#d6b656;fontSize=12;" vertex="1" parent="1">
          <mxGeometry x="550" y="200" width="120" height="60" as="geometry" />
        </mxCell>
        <mxCell id="8T1mNHdE_dd9eB9AEmfn-7" value="L-Type Exe" style="rounded=1;whiteSpace=wrap;html=1;fillColor=#fff2cc;strokeColor=#d6b656;fontSize=12;" vertex="1" parent="1">
          <mxGeometry x="700" y="200" width="120" height="60" as="geometry" />
        </mxCell>
        <mxCell id="8T1mNHdE_dd9eB9AEmfn-8" value="S-Type Mem Access" style="rounded=1;whiteSpace=wrap;html=1;fillColor=#e1d5e7;strokeColor=#9673a6;fontSize=12;" vertex="1" parent="1">
          <mxGeometry x="550" y="350" width="120" height="60" as="geometry" />
        </mxCell>
        <mxCell id="8T1mNHdE_dd9eB9AEmfn-9" value="L-Type Mem Acc" style="rounded=1;whiteSpace=wrap;html=1;fillColor=#e1d5e7;strokeColor=#9673a6;fontSize=12;" vertex="1" parent="1">
          <mxGeometry x="700" y="350" width="120" height="60" as="geometry" />
        </mxCell>
        <mxCell id="8T1mNHdE_dd9eB9AEmfn-10" value="L-Type Write Back" style="rounded=1;whiteSpace=wrap;html=1;fillColor=#d5e8d4;strokeColor=#82b366;fontSize=12;" vertex="1" parent="1">
          <mxGeometry x="700" y="500" width="120" height="60" as="geometry" />
        </mxCell>
        <mxCell id="8T1mNHdE_dd9eB9AEmfn-11" edge="1" parent="1" source="8T1mNHdE_dd9eB9AEmfn-1" target="8T1mNHdE_dd9eB9AEmfn-2">
          <mxGeometry relative="1" as="geometry" />
        </mxCell>
        <mxCell id="8T1mNHdE_dd9eB9AEmfn-12" edge="1" parent="1" source="8T1mNHdE_dd9eB9AEmfn-2" target="8T1mNHdE_dd9eB9AEmfn-3">
          <mxGeometry relative="1" as="geometry" />
        </mxCell>
        <mxCell id="8T1mNHdE_dd9eB9AEmfn-13" edge="1" parent="1" source="8T1mNHdE_dd9eB9AEmfn-2" target="8T1mNHdE_dd9eB9AEmfn-4">
          <mxGeometry relative="1" as="geometry" />
        </mxCell>
        <mxCell id="8T1mNHdE_dd9eB9AEmfn-14" edge="1" parent="1" source="8T1mNHdE_dd9eB9AEmfn-2" target="8T1mNHdE_dd9eB9AEmfn-5">
          <mxGeometry relative="1" as="geometry" />
        </mxCell>
        <mxCell id="8T1mNHdE_dd9eB9AEmfn-15" edge="1" parent="1" source="8T1mNHdE_dd9eB9AEmfn-2" target="8T1mNHdE_dd9eB9AEmfn-6">
          <mxGeometry relative="1" as="geometry" />
        </mxCell>
        <mxCell id="8T1mNHdE_dd9eB9AEmfn-16" edge="1" parent="1" source="8T1mNHdE_dd9eB9AEmfn-2" target="8T1mNHdE_dd9eB9AEmfn-7">
          <mxGeometry relative="1" as="geometry" />
        </mxCell>
        <mxCell id="8T1mNHdE_dd9eB9AEmfn-17" edge="1" parent="1" source="8T1mNHdE_dd9eB9AEmfn-6" target="8T1mNHdE_dd9eB9AEmfn-8">
          <mxGeometry relative="1" as="geometry" />
        </mxCell>
        <mxCell id="8T1mNHdE_dd9eB9AEmfn-18" edge="1" parent="1" source="8T1mNHdE_dd9eB9AEmfn-7" target="8T1mNHdE_dd9eB9AEmfn-9">
          <mxGeometry relative="1" as="geometry" />
        </mxCell>
        <mxCell id="8T1mNHdE_dd9eB9AEmfn-19" edge="1" parent="1" source="8T1mNHdE_dd9eB9AEmfn-9" target="8T1mNHdE_dd9eB9AEmfn-10">
          <mxGeometry relative="1" as="geometry" />
        </mxCell>
        <mxCell id="8T1mNHdE_dd9eB9AEmfn-20" edge="1" parent="1" source="8T1mNHdE_dd9eB9AEmfn-3" target="8T1mNHdE_dd9eB9AEmfn-1">
          <mxGeometry relative="1" as="geometry">
            <Array as="points">
              <mxPoint x="50" y="230" />
              <mxPoint x="50" y="80" />
            </Array>
          </mxGeometry>
        </mxCell>
        <mxCell id="8T1mNHdE_dd9eB9AEmfn-21" edge="1" parent="1" target="8T1mNHdE_dd9eB9AEmfn-1">
          <mxGeometry relative="1" as="geometry">
            <Array as="points">
              <mxPoint x="150" y="300" />
              <mxPoint x="50" y="300" />
              <mxPoint x="50" y="80" />
            </Array>
            <mxPoint x="310" y="300" as="sourcePoint" />
          </mxGeometry>
        </mxCell>
        <mxCell id="8T1mNHdE_dd9eB9AEmfn-22" edge="1" parent="1" target="8T1mNHdE_dd9eB9AEmfn-1">
          <mxGeometry relative="1" as="geometry">
            <Array as="points">
              <mxPoint x="220" y="330" />
              <mxPoint x="50" y="330" />
              <mxPoint x="50" y="80" />
            </Array>
            <mxPoint x="450" y="330" as="sourcePoint" />
          </mxGeometry>
        </mxCell>
        <mxCell id="8T1mNHdE_dd9eB9AEmfn-23" edge="1" parent="1" source="8T1mNHdE_dd9eB9AEmfn-8" target="8T1mNHdE_dd9eB9AEmfn-1">
          <mxGeometry relative="1" as="geometry">
            <Array as="points">
              <mxPoint x="50" y="380" />
              <mxPoint x="50" y="80" />
            </Array>
          </mxGeometry>
        </mxCell>
        <mxCell id="8T1mNHdE_dd9eB9AEmfn-24" edge="1" parent="1" source="8T1mNHdE_dd9eB9AEmfn-10" target="8T1mNHdE_dd9eB9AEmfn-1">
          <mxGeometry relative="1" as="geometry">
            <Array as="points">
              <mxPoint x="50" y="530" />
              <mxPoint x="50" y="80" />
            </Array>
          </mxGeometry>
        </mxCell>
        <mxCell id="8T1mNHdE_dd9eB9AEmfn-26" value="" style="endArrow=none;html=1;rounded=0;" edge="1" parent="1">
          <mxGeometry width="50" height="50" relative="1" as="geometry">
            <mxPoint x="450" y="330" as="sourcePoint" />
            <mxPoint x="450" y="260" as="targetPoint" />
          </mxGeometry>
        </mxCell>
        <mxCell id="8T1mNHdE_dd9eB9AEmfn-27" value="" style="endArrow=none;html=1;rounded=0;entryX=0.5;entryY=1;entryDx=0;entryDy=0;" edge="1" parent="1" target="8T1mNHdE_dd9eB9AEmfn-4">
          <mxGeometry width="50" height="50" relative="1" as="geometry">
            <mxPoint x="310" y="300" as="sourcePoint" />
            <mxPoint x="360" y="250" as="targetPoint" />
          </mxGeometry>
        </mxCell>
        <mxCell id="8T1mNHdE_dd9eB9AEmfn-28" value="" style="ellipse;whiteSpace=wrap;html=1;" vertex="1" parent="1">
          <mxGeometry x="1121" y="140" width="120" height="80" as="geometry" />
        </mxCell>
      </root>
    </mxGraphModel>
  </diagram>
</mxfile>
